<?xml version="1.0"?>
<svg version="1.1" xmlns="http://www.w3.org/2000/svg" width="100px" height="36px" style=""><path fill="#f8faf7" d="M1.04248046875,13.830078125q0-0.80322265625,0.042724609375-1.58935546875t0.145263671875-1.55517578125q0.068359375-0.39306640625,0.606689453125-0.56396484375t0.897216796875-0.1708984375l0.41015625,0.0341796875q0.49560546875,0.068359375,0.999755859375-0.068359375t0.999755859375-0.13671875q1.162109375,0,2.59765625,0.25634765625t2.691650390625,0.87158203125t2.110595703125,1.614990234375t0.8544921875,2.469482421875t-0.888671875,2.742919921875t-2.23876953125,2.23876953125t-2.9052734375,1.512451171875t-2.85400390625,0.546875q0.13671875,3.29833984375,0.384521484375,6.54541015625t0.845947265625,6.494140625l0.0341796875,0.22216796875q0,0.2392578125-0.213623046875,0.39306640625t-0.504150390625,0.247802734375t-0.589599609375,0.128173828125t-0.487060546875,0.0341796875q-0.42724609375,0-1.033935546875-0.162353515625t-0.743408203125-0.640869140625q-0.39306640625-1.50390625-0.615234375-3.306884765625t-0.32470703125-3.768310546875t-0.145263671875-3.956298828125t-0.042724609375-3.887939453125l0-3.84521484375q0-0.63232421875-0.01708984375-1.31591796875t-0.01708984375-1.38427734375z M4.2724609375,11.0615234375q0,2.34130859375,0.05126953125,4.674072265625t0.11962890625,4.674072265625q1.00830078125-0.205078125,2.059326171875-0.726318359375t1.89697265625-1.239013671875t1.3671875-1.632080078125t0.521240234375-1.922607421875q0-0.90576171875-0.452880859375-1.62353515625t-1.170654296875-1.23046875q-0.70068359375-0.49560546875-1.58935546875-0.76904296875q-0.7861328125-0.2392578125-1.5380859375-0.2392578125l-0.18798828125,0z M16.195532226562,27.62158203125q0-0.341796875,0.076904296875-0.90576171875t0.179443359375-1.119384765625t0.2392578125-1.033935546875t0.32470703125-0.615234375q0.13671875-0.13671875,0.469970703125-0.2734375t0.70068359375-0.196533203125t0.68359375,0.05126953125t0.384521484375,0.452880859375q-0.2392578125,0.3076171875-0.435791015625,1.051025390625t-0.299072265625,1.649169921875q-0.08544921875,0.76904296875-0.08544921875,1.58935546875l0,0.29052734375q0.01708984375,0.95703125,0.1708984375,1.76025390625t0.469970703125,1.324462890625t0.880126953125,0.521240234375q1.1962890625,0,2.1875-1.102294921875t1.76025390625-2.691650390625t1.35009765625-3.375244140625t0.9912109375-3.118896484375q0.1025390625-0.39306640625,0.487060546875-0.52978515625t0.828857421875-0.093994140625t0.794677734375,0.213623046875t0.418701171875,0.41015625q-0.341796875,2.87109375-0.538330078125,5.7421875t-0.196533203125,5.7763671875q0,0.56396484375,0.05126953125,1.033935546875t-0.05126953125,0.80322265625t-0.452880859375,0.52978515625t-1.119384765625,0.196533203125q-0.1708984375,0-0.435791015625-0.0341796875t-0.546875-0.111083984375t-0.478515625-0.230712890625t-0.196533203125-0.35888671875q0-1.2646484375,0.093994140625-2.59765625t0.264892578125-2.58056640625q-0.46142578125,0.66650390625-1.016845703125,1.324462890625t-1.221923828125,1.187744140625t-1.435546875,0.845947265625t-1.65771484375,0.316162109375q-1.2646484375,0-1.990966796875-0.59814453125t-1.09375-1.495361328125t-0.46142578125-1.956787109375t-0.093994140625-2.05078125z M32.271435546875,24.34033203125q0-0.70068359375,0.247802734375-1.17919921875t1.051025390625-0.478515625q0.3076171875,0,0.76904296875,0.093994140625t0.52978515625,0.469970703125q0.1708984375,1.00830078125,0.18798828125,2.1875t0.11962890625,2.2216796875q0.39306640625-0.76904296875,1.00830078125-1.65771484375t1.4013671875-1.640625t1.708984375-1.24755859375t1.8798828125-0.49560546875q0.068359375,0,0.25634765625,0.05126953125t0.350341796875,0.145263671875t0.196533203125,0.213623046875t-0.18798828125,0.22216796875q-0.068359375,0.205078125-0.29052734375,0.247802734375t-0.39306640625,0.042724609375q-0.1025390625,0-0.32470703125-0.08544921875q-1.2646484375,0.66650390625-2.1533203125,1.8115234375t-1.45263671875,2.537841796875t-0.8203125,2.939453125t-0.25634765625,3.016357421875q0,0.73486328125-0.333251953125,0.888671875t-1.068115234375,0.15380859375q-0.39306640625,0-0.828857421875-0.08544921875t-0.606689453125-0.546875q-0.3076171875-0.97412109375-0.504150390625-2.23876953125t-0.299072265625-2.606201171875t-0.145263671875-2.640380859375t-0.042724609375-2.34130859375z M43.715991210938,27.62158203125q0-0.341796875,0.076904296875-0.90576171875t0.179443359375-1.119384765625t0.2392578125-1.033935546875t0.32470703125-0.615234375q0.13671875-0.13671875,0.469970703125-0.2734375t0.70068359375-0.196533203125t0.68359375,0.05126953125t0.384521484375,0.452880859375q-0.2392578125,0.3076171875-0.435791015625,1.051025390625t-0.299072265625,1.649169921875q-0.08544921875,0.76904296875-0.08544921875,1.58935546875l0,0.29052734375q0.01708984375,0.95703125,0.1708984375,1.76025390625t0.469970703125,1.324462890625t0.880126953125,0.521240234375q1.1962890625,0,2.1875-1.102294921875t1.76025390625-2.691650390625t1.35009765625-3.375244140625t0.9912109375-3.118896484375q0.1025390625-0.39306640625,0.487060546875-0.52978515625t0.828857421875-0.093994140625t0.794677734375,0.213623046875t0.418701171875,0.41015625q-0.341796875,2.87109375-0.538330078125,5.7421875t-0.196533203125,5.7763671875q0,0.56396484375,0.05126953125,1.033935546875t-0.05126953125,0.80322265625t-0.452880859375,0.52978515625t-1.119384765625,0.196533203125q-0.1708984375,0-0.435791015625-0.0341796875t-0.546875-0.111083984375t-0.478515625-0.230712890625t-0.196533203125-0.35888671875q0-1.2646484375,0.093994140625-2.59765625t0.264892578125-2.58056640625q-0.46142578125,0.66650390625-1.016845703125,1.324462890625t-1.221923828125,1.187744140625t-1.435546875,0.845947265625t-1.65771484375,0.316162109375q-1.2646484375,0-1.990966796875-0.59814453125t-1.09375-1.495361328125t-0.46142578125-1.956787109375t-0.093994140625-2.05078125z M66.810180664062,34.52587890625q0-0.42724609375,0.05126953125-0.863037109375t0.05126953125-0.863037109375l0-0.2734375q0-0.52978515625,0.435791015625-0.66650390625t0.897216796875-0.13671875q0.52978515625,0,1.016845703125,0.22216796875t0.487060546875,0.8544921875q0.1025390625,0.3076171875,0.1025390625,0.73486328125l0,0.80322265625q0,0.59814453125-0.418701171875,0.828857421875t-1.119384765625,0.230712890625q-0.49560546875,0-0.999755859375-0.179443359375t-0.504150390625-0.692138671875z"/><path fill="#" d=""/></svg>
